<svg id="Camada_1" data-name="Camada 1" xmlns="http://www.w3.org/2000/svg" viewBox="0 0 500 500">
  <defs>
    <style>
      .cls-1 {
        fill: #536dfe;
      }
    </style>
  </defs>
  <title>logo</title>
  <g>
    <path class="cls-1" d="M399.93,134.38H188.62a31.6,31.6,0,0,0-30.68-24H87.8a9.25,9.25,0,0,0-9.25,9.25h0a46.25,46.25,0,0,0,46.25,46.25h9.25v55.5h0a14.22,14.22,0,0,0,1.63,7L173,299a41.72,41.72,0,0,0,40,22.1l111.73-8.41a30.69,30.69,0,0,0,24.79-16.2L418.91,166A21.5,21.5,0,0,0,399.93,134.38Zm-96.41,86.49-24.14,45.44a10.72,10.72,0,0,1-8.66,5.66L230.13,275a10.79,10.79,0,0,1-10.35-5.73l-25.4-48.07a9.52,9.52,0,0,1,8.42-14h92.54a9.27,9.27,0,0,1,8.18,13.61Z"/>
    <circle class="cls-1" cx="217.3" cy="361.88" r="27.75"/>
    <circle class="cls-1" cx="290.47" cy="362.47" r="27.75"/>
  </g>
</svg>
